<mxfile host="Electron" agent="Mozilla/5.0 (Windows NT 10.0; Win64; x64) AppleWebKit/537.36 (KHTML, like Gecko) draw.io/26.0.16 Chrome/132.0.6834.196 Electron/34.2.0 Safari/537.36" version="26.0.16">
  <diagram name="Page-1" id="RjFnyGkS8r_YOPcx2f9j">
    <mxGraphModel dx="2323" dy="638" grid="1" gridSize="10" guides="1" tooltips="1" connect="1" arrows="1" fold="1" page="1" pageScale="1" pageWidth="850" pageHeight="1100" math="0" shadow="0">
      <root>
        <mxCell id="0" />
        <mxCell id="1" parent="0" />
        <mxCell id="PDacYuAi1gimg0IvUFl0-7" value="Position" style="rounded=1;arcSize=10;whiteSpace=wrap;html=1;align=center;" vertex="1" parent="1">
          <mxGeometry x="-620" y="280" width="100" height="40" as="geometry" />
        </mxCell>
        <mxCell id="PDacYuAi1gimg0IvUFl0-8" value="&lt;span style=&quot;border-bottom: 1px dotted&quot;&gt;title&lt;/span&gt;" style="ellipse;whiteSpace=wrap;html=1;align=center;" vertex="1" parent="1">
          <mxGeometry x="-760" y="190" width="100" height="40" as="geometry" />
        </mxCell>
        <mxCell id="PDacYuAi1gimg0IvUFl0-9" value="positionHeldID&lt;div&gt;(FK)&lt;/div&gt;" style="ellipse;whiteSpace=wrap;html=1;align=center;" vertex="1" parent="1">
          <mxGeometry x="-640" y="160" width="100" height="40" as="geometry" />
        </mxCell>
        <mxCell id="PDacYuAi1gimg0IvUFl0-10" value="&lt;span style=&quot;border-bottom: 1px dotted&quot;&gt;personID(FK)&lt;/span&gt;" style="ellipse;whiteSpace=wrap;html=1;align=center;" vertex="1" parent="1">
          <mxGeometry x="-515" y="190" width="100" height="40" as="geometry" />
        </mxCell>
        <mxCell id="PDacYuAi1gimg0IvUFl0-12" value="Position_held" style="rounded=1;arcSize=10;whiteSpace=wrap;html=1;align=center;" vertex="1" parent="1">
          <mxGeometry x="-270" y="270" width="100" height="40" as="geometry" />
        </mxCell>
        <mxCell id="PDacYuAi1gimg0IvUFl0-15" value="&lt;span style=&quot;border-bottom: 1px dotted&quot;&gt;PositionID(PK)&lt;/span&gt;" style="ellipse;whiteSpace=wrap;html=1;align=center;" vertex="1" parent="1">
          <mxGeometry x="-820" y="270" width="100" height="40" as="geometry" />
        </mxCell>
        <mxCell id="PDacYuAi1gimg0IvUFl0-16" value="&lt;span style=&quot;border-bottom: 1px dotted&quot;&gt;start_date&lt;/span&gt;" style="ellipse;whiteSpace=wrap;html=1;align=center;" vertex="1" parent="1">
          <mxGeometry x="-325" y="160" width="100" height="40" as="geometry" />
        </mxCell>
        <mxCell id="PDacYuAi1gimg0IvUFl0-17" value="positionHeldID&lt;div&gt;(PK)&lt;/div&gt;" style="ellipse;whiteSpace=wrap;html=1;align=center;" vertex="1" parent="1">
          <mxGeometry x="-400" y="220" width="100" height="40" as="geometry" />
        </mxCell>
        <mxCell id="PDacYuAi1gimg0IvUFl0-18" value="&lt;span style=&quot;border-bottom: 1px dotted&quot;&gt;termination_date&lt;/span&gt;" style="ellipse;whiteSpace=wrap;html=1;align=center;" vertex="1" parent="1">
          <mxGeometry x="-180" y="160" width="100" height="40" as="geometry" />
        </mxCell>
        <mxCell id="PDacYuAi1gimg0IvUFl0-19" value="&lt;span style=&quot;border-bottom: 1px dotted&quot;&gt;salary&lt;/span&gt;" style="ellipse;whiteSpace=wrap;html=1;align=center;" vertex="1" parent="1">
          <mxGeometry x="-110" y="210" width="100" height="40" as="geometry" />
        </mxCell>
        <mxCell id="PDacYuAi1gimg0IvUFl0-20" style="edgeStyle=orthogonalEdgeStyle;rounded=0;orthogonalLoop=1;jettySize=auto;html=1;exitX=0.5;exitY=0;exitDx=0;exitDy=0;entryX=0;entryY=0;entryDx=0;entryDy=0;" edge="1" parent="1" source="PDacYuAi1gimg0IvUFl0-18" target="PDacYuAi1gimg0IvUFl0-18">
          <mxGeometry relative="1" as="geometry" />
        </mxCell>
        <mxCell id="PDacYuAi1gimg0IvUFl0-22" value="" style="endArrow=none;html=1;rounded=0;entryX=0;entryY=0.75;entryDx=0;entryDy=0;exitX=1;exitY=0.5;exitDx=0;exitDy=0;" edge="1" parent="1" source="PDacYuAi1gimg0IvUFl0-15" target="PDacYuAi1gimg0IvUFl0-7">
          <mxGeometry relative="1" as="geometry">
            <mxPoint x="-740" y="340" as="sourcePoint" />
            <mxPoint x="-580" y="340" as="targetPoint" />
          </mxGeometry>
        </mxCell>
        <mxCell id="PDacYuAi1gimg0IvUFl0-23" value="" style="endArrow=none;html=1;rounded=0;exitX=1;exitY=0;exitDx=0;exitDy=0;entryX=0;entryY=1;entryDx=0;entryDy=0;" edge="1" parent="1" source="PDacYuAi1gimg0IvUFl0-7" target="PDacYuAi1gimg0IvUFl0-10">
          <mxGeometry relative="1" as="geometry">
            <mxPoint x="-575" y="250" as="sourcePoint" />
            <mxPoint x="-415" y="250" as="targetPoint" />
          </mxGeometry>
        </mxCell>
        <mxCell id="PDacYuAi1gimg0IvUFl0-24" value="" style="endArrow=none;html=1;rounded=0;exitX=0.5;exitY=1;exitDx=0;exitDy=0;entryX=0.5;entryY=0;entryDx=0;entryDy=0;" edge="1" parent="1" source="PDacYuAi1gimg0IvUFl0-9" target="PDacYuAi1gimg0IvUFl0-7">
          <mxGeometry relative="1" as="geometry">
            <mxPoint x="-630" y="250" as="sourcePoint" />
            <mxPoint x="-590" y="260" as="targetPoint" />
          </mxGeometry>
        </mxCell>
        <mxCell id="PDacYuAi1gimg0IvUFl0-25" value="" style="endArrow=none;html=1;rounded=0;entryX=0;entryY=0;entryDx=0;entryDy=0;exitX=1;exitY=1;exitDx=0;exitDy=0;" edge="1" parent="1" source="PDacYuAi1gimg0IvUFl0-8" target="PDacYuAi1gimg0IvUFl0-7">
          <mxGeometry relative="1" as="geometry">
            <mxPoint x="-670" y="230" as="sourcePoint" />
            <mxPoint x="-510" y="230" as="targetPoint" />
          </mxGeometry>
        </mxCell>
        <mxCell id="PDacYuAi1gimg0IvUFl0-26" value="" style="endArrow=none;html=1;rounded=0;exitX=1;exitY=0.25;exitDx=0;exitDy=0;entryX=0;entryY=1;entryDx=0;entryDy=0;" edge="1" parent="1" source="PDacYuAi1gimg0IvUFl0-12" target="PDacYuAi1gimg0IvUFl0-19">
          <mxGeometry relative="1" as="geometry">
            <mxPoint x="-150" y="289" as="sourcePoint" />
            <mxPoint x="10" y="289" as="targetPoint" />
          </mxGeometry>
        </mxCell>
        <mxCell id="PDacYuAi1gimg0IvUFl0-27" value="" style="endArrow=none;html=1;rounded=0;exitX=0.5;exitY=0;exitDx=0;exitDy=0;entryX=0;entryY=1;entryDx=0;entryDy=0;" edge="1" parent="1" source="PDacYuAi1gimg0IvUFl0-12" target="PDacYuAi1gimg0IvUFl0-18">
          <mxGeometry relative="1" as="geometry">
            <mxPoint x="-225" y="210" as="sourcePoint" />
            <mxPoint x="-65" y="210" as="targetPoint" />
          </mxGeometry>
        </mxCell>
        <mxCell id="PDacYuAi1gimg0IvUFl0-28" value="" style="endArrow=none;html=1;rounded=0;exitX=0.5;exitY=1;exitDx=0;exitDy=0;entryX=0.25;entryY=0;entryDx=0;entryDy=0;" edge="1" parent="1" source="PDacYuAi1gimg0IvUFl0-16" target="PDacYuAi1gimg0IvUFl0-12">
          <mxGeometry relative="1" as="geometry">
            <mxPoint x="-280" y="230" as="sourcePoint" />
            <mxPoint x="-120" y="230" as="targetPoint" />
          </mxGeometry>
        </mxCell>
        <mxCell id="PDacYuAi1gimg0IvUFl0-29" value="" style="endArrow=none;html=1;rounded=0;exitX=1;exitY=1;exitDx=0;exitDy=0;entryX=0;entryY=0.25;entryDx=0;entryDy=0;" edge="1" parent="1" source="PDacYuAi1gimg0IvUFl0-17" target="PDacYuAi1gimg0IvUFl0-12">
          <mxGeometry relative="1" as="geometry">
            <mxPoint x="-320" y="240" as="sourcePoint" />
            <mxPoint x="-160" y="240" as="targetPoint" />
          </mxGeometry>
        </mxCell>
        <mxCell id="PDacYuAi1gimg0IvUFl0-30" value="" style="endArrow=none;html=1;rounded=0;exitX=1;exitY=0.5;exitDx=0;exitDy=0;entryX=0;entryY=0.75;entryDx=0;entryDy=0;" edge="1" parent="1" source="PDacYuAi1gimg0IvUFl0-7" target="PDacYuAi1gimg0IvUFl0-12">
          <mxGeometry relative="1" as="geometry">
            <mxPoint x="-555" y="340" as="sourcePoint" />
            <mxPoint x="-395" y="340" as="targetPoint" />
          </mxGeometry>
        </mxCell>
        <mxCell id="PDacYuAi1gimg0IvUFl0-31" value="Persons" style="rounded=1;arcSize=10;whiteSpace=wrap;html=1;align=center;" vertex="1" parent="1">
          <mxGeometry x="-620" y="560" width="100" height="40" as="geometry" />
        </mxCell>
        <mxCell id="PDacYuAi1gimg0IvUFl0-32" value="Employment" style="rounded=1;arcSize=10;whiteSpace=wrap;html=1;align=center;" vertex="1" parent="1">
          <mxGeometry x="-80" y="550" width="100" height="40" as="geometry" />
        </mxCell>
        <mxCell id="PDacYuAi1gimg0IvUFl0-33" value="Oganization" style="rounded=1;arcSize=10;whiteSpace=wrap;html=1;align=center;" vertex="1" parent="1">
          <mxGeometry x="380" y="550" width="100" height="40" as="geometry" />
        </mxCell>
        <mxCell id="PDacYuAi1gimg0IvUFl0-34" value="&lt;span style=&quot;border-bottom: 1px dotted&quot;&gt;birth_date&lt;/span&gt;" style="ellipse;whiteSpace=wrap;html=1;align=center;" vertex="1" parent="1">
          <mxGeometry x="-430" y="600" width="100" height="40" as="geometry" />
        </mxCell>
        <mxCell id="PDacYuAi1gimg0IvUFl0-35" value="&lt;span style=&quot;border-bottom: 1px dotted&quot;&gt;phone&lt;/span&gt;" style="ellipse;whiteSpace=wrap;html=1;align=center;" vertex="1" parent="1">
          <mxGeometry x="-475" y="660" width="100" height="40" as="geometry" />
        </mxCell>
        <mxCell id="PDacYuAi1gimg0IvUFl0-36" value="&lt;span style=&quot;border-bottom: 1px dotted&quot;&gt;address&lt;/span&gt;" style="ellipse;whiteSpace=wrap;html=1;align=center;" vertex="1" parent="1">
          <mxGeometry x="-615" y="680" width="100" height="40" as="geometry" />
        </mxCell>
        <mxCell id="PDacYuAi1gimg0IvUFl0-37" value="&lt;span style=&quot;border-bottom: 1px dotted&quot;&gt;name&lt;/span&gt;" style="ellipse;whiteSpace=wrap;html=1;align=center;" vertex="1" parent="1">
          <mxGeometry x="-740" y="640" width="100" height="40" as="geometry" />
        </mxCell>
        <mxCell id="PDacYuAi1gimg0IvUFl0-38" value="&lt;span style=&quot;border-bottom: 1px dotted&quot;&gt;personID(PK)&lt;/span&gt;" style="ellipse;whiteSpace=wrap;html=1;align=center;" vertex="1" parent="1">
          <mxGeometry x="-770" y="490" width="100" height="40" as="geometry" />
        </mxCell>
        <mxCell id="PDacYuAi1gimg0IvUFl0-39" value="&lt;span style=&quot;border-bottom: 1px dotted&quot;&gt;ID&lt;/span&gt;" style="ellipse;whiteSpace=wrap;html=1;align=center;" vertex="1" parent="1">
          <mxGeometry x="-780" y="560" width="100" height="40" as="geometry" />
        </mxCell>
        <mxCell id="PDacYuAi1gimg0IvUFl0-40" value="&lt;span style=&quot;border-bottom: 1px dotted&quot;&gt;personID(FK)&lt;/span&gt;" style="ellipse;whiteSpace=wrap;html=1;align=center;" vertex="1" parent="1">
          <mxGeometry x="-70" y="680" width="100" height="40" as="geometry" />
        </mxCell>
        <mxCell id="PDacYuAi1gimg0IvUFl0-41" value="&lt;span style=&quot;border-bottom: 1px dotted&quot;&gt;bonus&lt;/span&gt;" style="ellipse;whiteSpace=wrap;html=1;align=center;" vertex="1" parent="1">
          <mxGeometry x="-190" y="640" width="100" height="40" as="geometry" />
        </mxCell>
        <mxCell id="PDacYuAi1gimg0IvUFl0-42" value="&lt;span style=&quot;border-bottom: 1px dotted&quot;&gt;organizationID&lt;/span&gt;&lt;div&gt;&lt;span style=&quot;border-bottom: 1px dotted&quot;&gt;(FK)&lt;/span&gt;&lt;/div&gt;" style="ellipse;whiteSpace=wrap;html=1;align=center;" vertex="1" parent="1">
          <mxGeometry x="60" y="650" width="100" height="40" as="geometry" />
        </mxCell>
        <mxCell id="PDacYuAi1gimg0IvUFl0-43" value="&lt;span style=&quot;border-bottom: 1px dotted&quot;&gt;termination_date&lt;/span&gt;" style="ellipse;whiteSpace=wrap;html=1;align=center;" vertex="1" parent="1">
          <mxGeometry x="60" y="460" width="100" height="40" as="geometry" />
        </mxCell>
        <mxCell id="PDacYuAi1gimg0IvUFl0-44" value="&lt;span style=&quot;border-bottom: 1px dotted&quot;&gt;employment_date&lt;/span&gt;" style="ellipse;whiteSpace=wrap;html=1;align=center;" vertex="1" parent="1">
          <mxGeometry x="-90" y="440" width="100" height="40" as="geometry" />
        </mxCell>
        <mxCell id="PDacYuAi1gimg0IvUFl0-45" value="&lt;span style=&quot;border-bottom: 1px dotted&quot;&gt;employmentID&lt;/span&gt;" style="ellipse;whiteSpace=wrap;html=1;align=center;" vertex="1" parent="1">
          <mxGeometry x="-220" y="480" width="100" height="40" as="geometry" />
        </mxCell>
        <mxCell id="PDacYuAi1gimg0IvUFl0-46" value="budget_number" style="ellipse;whiteSpace=wrap;html=1;align=center;" vertex="1" parent="1">
          <mxGeometry x="530" y="640" width="100" height="40" as="geometry" />
        </mxCell>
        <mxCell id="PDacYuAi1gimg0IvUFl0-47" value="&lt;span style=&quot;border-bottom: 1px dotted&quot;&gt;phone&lt;/span&gt;" style="ellipse;whiteSpace=wrap;html=1;align=center;" vertex="1" parent="1">
          <mxGeometry x="400" y="650" width="100" height="40" as="geometry" />
        </mxCell>
        <mxCell id="PDacYuAi1gimg0IvUFl0-48" value="&lt;span style=&quot;border-bottom: 1px dotted&quot;&gt;address&lt;/span&gt;" style="ellipse;whiteSpace=wrap;html=1;align=center;" vertex="1" parent="1">
          <mxGeometry x="280" y="650" width="100" height="40" as="geometry" />
        </mxCell>
        <mxCell id="PDacYuAi1gimg0IvUFl0-49" value="&lt;span style=&quot;border-bottom: 1px dotted&quot;&gt;name&lt;/span&gt;" style="ellipse;whiteSpace=wrap;html=1;align=center;" vertex="1" parent="1">
          <mxGeometry x="500" y="430" width="100" height="40" as="geometry" />
        </mxCell>
        <mxCell id="PDacYuAi1gimg0IvUFl0-50" value="&lt;span style=&quot;border-bottom: 1px dotted&quot;&gt;organizationID&lt;/span&gt;&lt;div&gt;&lt;span style=&quot;border-bottom: 1px dotted&quot;&gt;(PK)&lt;/span&gt;&lt;/div&gt;" style="ellipse;whiteSpace=wrap;html=1;align=center;" vertex="1" parent="1">
          <mxGeometry x="250" y="440" width="100" height="40" as="geometry" />
        </mxCell>
        <mxCell id="PDacYuAi1gimg0IvUFl0-51" value="&lt;span style=&quot;border-bottom: 1px dotted&quot;&gt;ID&lt;/span&gt;" style="ellipse;whiteSpace=wrap;html=1;align=center;" vertex="1" parent="1">
          <mxGeometry x="380" y="420" width="100" height="40" as="geometry" />
        </mxCell>
        <mxCell id="PDacYuAi1gimg0IvUFl0-53" value="" style="endArrow=none;html=1;rounded=0;exitX=1;exitY=0.5;exitDx=0;exitDy=0;entryX=0;entryY=0.5;entryDx=0;entryDy=0;" edge="1" parent="1" source="PDacYuAi1gimg0IvUFl0-31" target="PDacYuAi1gimg0IvUFl0-34">
          <mxGeometry relative="1" as="geometry">
            <mxPoint x="-510" y="560" as="sourcePoint" />
            <mxPoint x="-350" y="560" as="targetPoint" />
          </mxGeometry>
        </mxCell>
        <mxCell id="PDacYuAi1gimg0IvUFl0-54" value="" style="endArrow=none;html=1;rounded=0;exitX=0.75;exitY=1;exitDx=0;exitDy=0;entryX=0;entryY=0;entryDx=0;entryDy=0;" edge="1" parent="1" source="PDacYuAi1gimg0IvUFl0-31" target="PDacYuAi1gimg0IvUFl0-35">
          <mxGeometry relative="1" as="geometry">
            <mxPoint x="-510" y="579.1700000000001" as="sourcePoint" />
            <mxPoint x="-350" y="579.1700000000001" as="targetPoint" />
          </mxGeometry>
        </mxCell>
        <mxCell id="PDacYuAi1gimg0IvUFl0-55" value="" style="endArrow=none;html=1;rounded=0;entryX=0.5;entryY=0;entryDx=0;entryDy=0;exitX=0.5;exitY=1;exitDx=0;exitDy=0;" edge="1" parent="1" source="PDacYuAi1gimg0IvUFl0-31" target="PDacYuAi1gimg0IvUFl0-36">
          <mxGeometry relative="1" as="geometry">
            <mxPoint x="-620" y="658.3299999999999" as="sourcePoint" />
            <mxPoint x="-460" y="658.3299999999999" as="targetPoint" />
          </mxGeometry>
        </mxCell>
        <mxCell id="PDacYuAi1gimg0IvUFl0-56" value="" style="endArrow=none;html=1;rounded=0;exitX=1;exitY=0;exitDx=0;exitDy=0;entryX=0.25;entryY=1;entryDx=0;entryDy=0;" edge="1" parent="1" source="PDacYuAi1gimg0IvUFl0-37" target="PDacYuAi1gimg0IvUFl0-31">
          <mxGeometry relative="1" as="geometry">
            <mxPoint x="-615" y="619.1700000000001" as="sourcePoint" />
            <mxPoint x="-455" y="619.1700000000001" as="targetPoint" />
          </mxGeometry>
        </mxCell>
        <mxCell id="PDacYuAi1gimg0IvUFl0-57" value="" style="endArrow=none;html=1;rounded=0;exitX=1;exitY=0.5;exitDx=0;exitDy=0;entryX=0;entryY=0.5;entryDx=0;entryDy=0;" edge="1" parent="1" source="PDacYuAi1gimg0IvUFl0-39" target="PDacYuAi1gimg0IvUFl0-31">
          <mxGeometry relative="1" as="geometry">
            <mxPoint x="-640" y="630" as="sourcePoint" />
            <mxPoint x="-480" y="630" as="targetPoint" />
          </mxGeometry>
        </mxCell>
        <mxCell id="PDacYuAi1gimg0IvUFl0-58" value="" style="endArrow=none;html=1;rounded=0;exitX=1;exitY=0.5;exitDx=0;exitDy=0;entryX=0;entryY=0;entryDx=0;entryDy=0;" edge="1" parent="1" source="PDacYuAi1gimg0IvUFl0-38" target="PDacYuAi1gimg0IvUFl0-31">
          <mxGeometry relative="1" as="geometry">
            <mxPoint x="-640" y="510" as="sourcePoint" />
            <mxPoint x="-480" y="510" as="targetPoint" />
          </mxGeometry>
        </mxCell>
        <mxCell id="PDacYuAi1gimg0IvUFl0-59" value="" style="endArrow=none;html=1;rounded=0;exitX=1;exitY=1;exitDx=0;exitDy=0;entryX=0;entryY=0;entryDx=0;entryDy=0;" edge="1" parent="1" source="PDacYuAi1gimg0IvUFl0-32" target="PDacYuAi1gimg0IvUFl0-42">
          <mxGeometry relative="1" as="geometry">
            <mxPoint x="30" y="579.1700000000001" as="sourcePoint" />
            <mxPoint x="190" y="579.1700000000001" as="targetPoint" />
          </mxGeometry>
        </mxCell>
        <mxCell id="PDacYuAi1gimg0IvUFl0-60" value="" style="endArrow=none;html=1;rounded=0;exitX=0.37;exitY=-0.033;exitDx=0;exitDy=0;exitPerimeter=0;entryX=0.5;entryY=1;entryDx=0;entryDy=0;" edge="1" parent="1" source="PDacYuAi1gimg0IvUFl0-40" target="PDacYuAi1gimg0IvUFl0-32">
          <mxGeometry relative="1" as="geometry">
            <mxPoint x="-70" y="619.1700000000001" as="sourcePoint" />
            <mxPoint x="90" y="619.1700000000001" as="targetPoint" />
          </mxGeometry>
        </mxCell>
        <mxCell id="PDacYuAi1gimg0IvUFl0-61" value="" style="endArrow=none;html=1;rounded=0;exitX=1;exitY=0;exitDx=0;exitDy=0;entryX=0;entryY=1;entryDx=0;entryDy=0;" edge="1" parent="1" source="PDacYuAi1gimg0IvUFl0-41" target="PDacYuAi1gimg0IvUFl0-32">
          <mxGeometry relative="1" as="geometry">
            <mxPoint x="-100" y="630" as="sourcePoint" />
            <mxPoint x="60" y="630" as="targetPoint" />
          </mxGeometry>
        </mxCell>
        <mxCell id="PDacYuAi1gimg0IvUFl0-62" value="" style="endArrow=none;html=1;rounded=0;exitX=1;exitY=0;exitDx=0;exitDy=0;entryX=0;entryY=1;entryDx=0;entryDy=0;" edge="1" parent="1" source="PDacYuAi1gimg0IvUFl0-32" target="PDacYuAi1gimg0IvUFl0-43">
          <mxGeometry relative="1" as="geometry">
            <mxPoint x="-30" y="548" as="sourcePoint" />
            <mxPoint x="130" y="548" as="targetPoint" />
          </mxGeometry>
        </mxCell>
        <mxCell id="PDacYuAi1gimg0IvUFl0-63" value="" style="endArrow=none;html=1;rounded=0;entryX=0.5;entryY=0;entryDx=0;entryDy=0;exitX=0.5;exitY=1;exitDx=0;exitDy=0;" edge="1" parent="1" source="PDacYuAi1gimg0IvUFl0-44" target="PDacYuAi1gimg0IvUFl0-32">
          <mxGeometry relative="1" as="geometry">
            <mxPoint x="-360" y="449.16999999999996" as="sourcePoint" />
            <mxPoint x="-200" y="449.16999999999996" as="targetPoint" />
          </mxGeometry>
        </mxCell>
        <mxCell id="PDacYuAi1gimg0IvUFl0-64" value="" style="endArrow=none;html=1;rounded=0;entryX=0;entryY=0;entryDx=0;entryDy=0;exitX=1;exitY=1;exitDx=0;exitDy=0;" edge="1" parent="1" source="PDacYuAi1gimg0IvUFl0-45" target="PDacYuAi1gimg0IvUFl0-32">
          <mxGeometry relative="1" as="geometry">
            <mxPoint x="-320" y="548" as="sourcePoint" />
            <mxPoint x="-160" y="548" as="targetPoint" />
          </mxGeometry>
        </mxCell>
        <mxCell id="PDacYuAi1gimg0IvUFl0-65" value="" style="endArrow=none;html=1;rounded=0;exitX=1;exitY=0.75;exitDx=0;exitDy=0;entryX=0.5;entryY=0;entryDx=0;entryDy=0;" edge="1" parent="1" source="PDacYuAi1gimg0IvUFl0-33" target="PDacYuAi1gimg0IvUFl0-46">
          <mxGeometry relative="1" as="geometry">
            <mxPoint x="510" y="570" as="sourcePoint" />
            <mxPoint x="670" y="570" as="targetPoint" />
          </mxGeometry>
        </mxCell>
        <mxCell id="PDacYuAi1gimg0IvUFl0-66" value="" style="endArrow=none;html=1;rounded=0;exitX=0.5;exitY=1;exitDx=0;exitDy=0;entryX=0.5;entryY=0;entryDx=0;entryDy=0;" edge="1" parent="1" source="PDacYuAi1gimg0IvUFl0-33" target="PDacYuAi1gimg0IvUFl0-47">
          <mxGeometry relative="1" as="geometry">
            <mxPoint x="500" y="590" as="sourcePoint" />
            <mxPoint x="660" y="590" as="targetPoint" />
          </mxGeometry>
        </mxCell>
        <mxCell id="PDacYuAi1gimg0IvUFl0-67" value="" style="endArrow=none;html=1;rounded=0;entryX=0;entryY=1;entryDx=0;entryDy=0;exitX=0.5;exitY=0;exitDx=0;exitDy=0;" edge="1" parent="1" source="PDacYuAi1gimg0IvUFl0-48" target="PDacYuAi1gimg0IvUFl0-33">
          <mxGeometry relative="1" as="geometry">
            <mxPoint x="220" y="598.3299999999999" as="sourcePoint" />
            <mxPoint x="380" y="598.3299999999999" as="targetPoint" />
          </mxGeometry>
        </mxCell>
        <mxCell id="PDacYuAi1gimg0IvUFl0-68" value="" style="endArrow=none;html=1;rounded=0;exitX=1;exitY=0;exitDx=0;exitDy=0;entryX=0.303;entryY=0.967;entryDx=0;entryDy=0;entryPerimeter=0;" edge="1" parent="1" source="PDacYuAi1gimg0IvUFl0-33" target="PDacYuAi1gimg0IvUFl0-49">
          <mxGeometry relative="1" as="geometry">
            <mxPoint x="490" y="490" as="sourcePoint" />
            <mxPoint x="650" y="490" as="targetPoint" />
          </mxGeometry>
        </mxCell>
        <mxCell id="PDacYuAi1gimg0IvUFl0-69" value="" style="endArrow=none;html=1;rounded=0;exitX=0.5;exitY=1;exitDx=0;exitDy=0;entryX=0.5;entryY=0;entryDx=0;entryDy=0;" edge="1" parent="1" source="PDacYuAi1gimg0IvUFl0-51" target="PDacYuAi1gimg0IvUFl0-33">
          <mxGeometry relative="1" as="geometry">
            <mxPoint x="425" y="528.33" as="sourcePoint" />
            <mxPoint x="585" y="528.33" as="targetPoint" />
          </mxGeometry>
        </mxCell>
        <mxCell id="PDacYuAi1gimg0IvUFl0-70" value="" style="endArrow=none;html=1;rounded=0;exitX=0.5;exitY=1;exitDx=0;exitDy=0;entryX=0;entryY=0;entryDx=0;entryDy=0;" edge="1" parent="1" source="PDacYuAi1gimg0IvUFl0-50" target="PDacYuAi1gimg0IvUFl0-33">
          <mxGeometry relative="1" as="geometry">
            <mxPoint x="180" y="550" as="sourcePoint" />
            <mxPoint x="340" y="550" as="targetPoint" />
          </mxGeometry>
        </mxCell>
        <mxCell id="PDacYuAi1gimg0IvUFl0-71" value="" style="endArrow=none;html=1;rounded=0;exitX=0.5;exitY=1;exitDx=0;exitDy=0;entryX=0.5;entryY=0;entryDx=0;entryDy=0;" edge="1" parent="1" source="PDacYuAi1gimg0IvUFl0-7" target="PDacYuAi1gimg0IvUFl0-31">
          <mxGeometry relative="1" as="geometry">
            <mxPoint x="-635" y="400" as="sourcePoint" />
            <mxPoint x="-475" y="400" as="targetPoint" />
          </mxGeometry>
        </mxCell>
        <mxCell id="PDacYuAi1gimg0IvUFl0-72" value="" style="endArrow=none;html=1;rounded=0;exitX=1;exitY=0.5;exitDx=0;exitDy=0;entryX=0;entryY=0.5;entryDx=0;entryDy=0;" edge="1" parent="1" source="PDacYuAi1gimg0IvUFl0-77" target="PDacYuAi1gimg0IvUFl0-33">
          <mxGeometry relative="1" as="geometry">
            <mxPoint x="120" y="590" as="sourcePoint" />
            <mxPoint x="280" y="590" as="targetPoint" />
          </mxGeometry>
        </mxCell>
        <mxCell id="PDacYuAi1gimg0IvUFl0-73" value="" style="endArrow=none;html=1;rounded=0;exitX=1;exitY=0.25;exitDx=0;exitDy=0;entryX=0;entryY=0.5;entryDx=0;entryDy=0;" edge="1" parent="1" source="PDacYuAi1gimg0IvUFl0-31" target="PDacYuAi1gimg0IvUFl0-32">
          <mxGeometry relative="1" as="geometry">
            <mxPoint x="-440" y="570" as="sourcePoint" />
            <mxPoint x="-280" y="570" as="targetPoint" />
          </mxGeometry>
        </mxCell>
        <mxCell id="PDacYuAi1gimg0IvUFl0-74" value="has" style="rhombus;whiteSpace=wrap;html=1;" vertex="1" parent="1">
          <mxGeometry x="-610" y="400" width="80" height="80" as="geometry" />
        </mxCell>
        <mxCell id="PDacYuAi1gimg0IvUFl0-75" value="has" style="rhombus;whiteSpace=wrap;html=1;" vertex="1" parent="1">
          <mxGeometry x="-440" y="260" width="80" height="80" as="geometry" />
        </mxCell>
        <mxCell id="PDacYuAi1gimg0IvUFl0-76" value="has" style="rhombus;whiteSpace=wrap;html=1;" vertex="1" parent="1">
          <mxGeometry x="-360" y="530" width="80" height="80" as="geometry" />
        </mxCell>
        <mxCell id="PDacYuAi1gimg0IvUFl0-78" value="" style="endArrow=none;html=1;rounded=0;exitX=1;exitY=0.5;exitDx=0;exitDy=0;entryX=0;entryY=0.5;entryDx=0;entryDy=0;" edge="1" parent="1" source="PDacYuAi1gimg0IvUFl0-32" target="PDacYuAi1gimg0IvUFl0-77">
          <mxGeometry relative="1" as="geometry">
            <mxPoint x="20" y="570" as="sourcePoint" />
            <mxPoint x="380" y="570" as="targetPoint" />
          </mxGeometry>
        </mxCell>
        <mxCell id="PDacYuAi1gimg0IvUFl0-77" value="has" style="rhombus;whiteSpace=wrap;html=1;" vertex="1" parent="1">
          <mxGeometry x="160" y="530" width="80" height="80" as="geometry" />
        </mxCell>
      </root>
    </mxGraphModel>
  </diagram>
</mxfile>
